<?xml version="1.0" standalone="no"?>
<!DOCTYPE svg PUBLIC "-//W3C//DTD SVG 20010904//EN"
 "http://www.w3.org/TR/2001/REC-SVG-20010904/DTD/svg10.dtd">
<svg version="1.0" xmlns="http://www.w3.org/2000/svg"
 width="260.000000pt" height="260.000000pt" viewBox="0 0 260.000000 260.000000"
 preserveAspectRatio="xMidYMid meet">
<metadata>
Created by potrace 1.11, written by Peter Selinger 2001-2013
</metadata>
<g transform="translate(0.000000,260.000000) scale(0.100000,-0.100000)"
fill="#000000" stroke="none">
<path d="M700 2552 c-17 -8 -41 -29 -53 -46 -21 -29 -22 -43 -24 -206 -1 -96
-2 -185 -2 -197 -1 -12 -12 -34 -25 -49 l-23 -28 -229 -1 c-257 -2 -275 -6
-311 -72 -17 -32 -18 -74 -18 -651 0 -477 3 -624 13 -647 7 -16 28 -41 48 -54
35 -24 41 -25 235 -26 110 0 203 2 208 5 8 5 28 64 76 225 15 50 39 110 53
135 29 51 110 134 153 155 37 19 136 42 174 40 28 -2 46 -5 135 -22 199 -38
324 -19 405 62 77 77 110 215 71 297 -10 20 -41 58 -69 83 -167 151 -219 220
-251 335 -23 86 -25 117 -26 406 l0 272 -255 -1 c-204 0 -260 -3 -285 -15z"/>
<path d="M1453 2557 c-13 -20 -3 -486 11 -546 29 -126 78 -152 190 -101 125
56 289 63 390 15 58 -28 114 -84 151 -150 20 -35 37 -72 39 -82 2 -10 9 -38
16 -63 22 -82 31 -167 30 -295 0 -211 -48 -413 -123 -526 -157 -236 -449 -327
-691 -215 -54 24 -96 55 -162 117 -49 47 -107 98 -129 114 -22 17 -49 38 -60
48 -24 22 -89 57 -127 68 -37 10 -82 -6 -103 -37 -9 -14 -71 -188 -139 -387
-130 -385 -132 -391 -87 -438 46 -48 36 -47 696 -45 l620 1 34 24 c54 39 61
69 61 265 0 96 4 186 10 200 16 44 42 50 230 52 96 1 185 2 197 3 12 0 38 16
57 35 l36 33 0 653 0 653 -36 33 c-19 19 -45 35 -57 35 -12 1 -98 2 -192 3
-93 1 -180 5 -193 10 -45 15 -52 50 -52 249 0 175 -1 186 -23 218 -42 63 -58
67 -337 67 -169 0 -252 -4 -257 -11z"/>
</g>
</svg>
