<?xml version="1.0" standalone="no"?>
<!DOCTYPE svg PUBLIC "-//W3C//DTD SVG 20010904//EN"
 "http://www.w3.org/TR/2001/REC-SVG-20010904/DTD/svg10.dtd">
<svg version="1.0" xmlns="http://www.w3.org/2000/svg"
 width="482.000000pt" height="482.000000pt" viewBox="0 0 482.000000 482.000000"
 preserveAspectRatio="xMidYMid meet">
<metadata>
Created by potrace 1.11, written by Peter Selinger 2001-2013
</metadata>
<g transform="translate(0.000000,482.000000) scale(0.100000,-0.100000)"
fill="#000000" stroke="none">
<path d="M1342 4748 c-78 -13 -144 -63 -183 -138 -24 -45 -24 -48 -26 -393 -3
-334 -4 -351 -24 -386 -43 -77 -34 -76 -490 -78 -392 -1 -408 -2 -456 -23 -59
-25 -102 -67 -134 -130 l-24 -45 0 -1115 c0 -613 3 -1137 8 -1164 15 -84 69
-150 154 -188 41 -18 68 -19 356 -19 172 0 339 0 372 1 l60 0 25 83 c14 45 25
84 26 87 0 3 4 12 7 20 3 8 32 102 63 208 68 228 115 322 214 422 109 110 223
176 348 200 76 15 237 8 337 -15 215 -48 428 -63 541 -36 27 6 59 13 70 15 51
10 140 63 200 118 35 33 64 66 64 73 0 7 3 15 8 17 14 6 61 115 80 185 26 97
22 191 -12 267 -27 61 -87 126 -293 314 -56 51 -124 123 -152 160 -89 118
-161 291 -177 427 -4 28 -8 53 -10 56 -11 19 -16 228 -17 634 l0 450 -448 0
c-246 0 -465 -3 -487 -7z"/>
<path d="M2663 4745 c-2 -6 -2 -220 1 -476 3 -367 7 -477 19 -524 67 -269 150
-308 409 -191 125 56 198 70 373 71 128 0 148 -2 228 -29 172 -56 288 -158
371 -325 59 -119 110 -302 132 -481 19 -147 9 -550 -16 -691 -5 -30 -12 -70
-15 -89 -22 -131 -76 -300 -130 -410 -141 -282 -394 -483 -705 -561 -109 -27
-314 -33 -415 -12 -209 43 -334 114 -527 298 -317 302 -476 411 -614 423 -126
10 -159 -35 -259 -343 -9 -27 -19 -57 -22 -65 -3 -8 -7 -19 -9 -25 -1 -5 -64
-190 -139 -410 -75 -220 -154 -451 -174 -514 l-39 -114 21 -49 c24 -59 72
-109 132 -138 l45 -22 1144 0 c1109 0 1145 1 1187 19 53 24 102 71 132 127 21
40 22 52 25 390 2 336 3 351 24 388 14 24 37 45 62 57 38 18 65 20 368 20 231
-1 339 3 365 12 81 26 152 99 173 179 6 21 8 487 7 1170 l-2 1135 -22 41 c-32
59 -90 112 -146 130 -41 14 -104 17 -381 18 -374 1 -384 3 -424 75 -21 38 -22
51 -25 383 -2 333 -3 344 -25 392 -27 58 -70 101 -132 129 -43 20 -62 21 -519
22 -330 0 -475 -3 -478 -10z"/>
</g>
</svg>
